<svg width="406.79375px" height="125px" xmlns="http://www.w3.org/2000/svg" viewBox="46.603125000000006 12.5 406.79375 125" style="background: rgb(255, 255, 255);" preserveAspectRatio="xMidYMid"><defs><filter id="editing-extrusion" x="-100%" y="-100%" width="300%" height="300%"><feFlood result="color1" flood-color="#01080a"></feFlood><feConvolveMatrix order="8,8" divisor="1" kernelMatrix="1 0 0 0 0 0 0 0 0 1 0 0 0 0 0 0 0 0 1 0 0 0 0 0 0 0 0 1 0 0 0 0 0 0 0 0 1 0 0 0 0 0 0 0 0 1 0 0 0 0 0 0 0 0 1 0 0 0 0 0 0 0 0 1" in="SourceAlpha" result="extrude"></feConvolveMatrix><feComposite in="color1" in2="extrude" result="comp-extrude" operator="in"></feComposite><feOffset dx="4" dy="4" in="comp-extrude" result="offset-extrude"></feOffset><feMerge><feMergeNode in="offset-extrude"></feMergeNode><feMergeNode in="SourceGraphic"></feMergeNode></feMerge></filter></defs><g filter="url(#editing-extrusion)"><g transform="translate(107.78998410701752, 100.18499946594238)"><path d="M24.58-47.49L24.58-47.49L24.58-47.49Q34.05-47.49 41.02-40.64L41.02-40.64L41.02-40.64Q48-33.79 48-23.65L48-23.65L48-23.65Q48-13.50 41.34-6.37L41.34-6.37L41.34-6.37Q34.69 0.77 24.96 0.77L24.96 0.77L24.96 0.77Q15.23 0.77 8.42-6.27L8.42-6.27L8.42-6.27Q1.60-13.31 1.60-23.04L1.60-23.04L1.60-23.04Q1.60-28.35 3.52-32.99L3.52-32.99L3.52-32.99Q5.44-37.63 8.64-40.77L8.64-40.77L8.64-40.77Q11.84-43.90 16-45.70L16-45.70L16-45.70Q20.16-47.49 24.58-47.49ZM12.93-23.36L12.93-23.36L12.93-23.36Q12.93-17.66 16.61-14.11L16.61-14.11L16.61-14.11Q20.29-10.56 24.83-10.56L24.83-10.56L24.83-10.56Q29.38-10.56 33.02-14.02L33.02-14.02L33.02-14.02Q36.67-17.47 36.67-23.30L36.67-23.30L36.67-23.30Q36.67-29.12 32.99-32.64L32.99-32.64L32.99-32.64Q29.31-36.16 24.77-36.16L24.77-36.16L24.77-36.16Q20.22-36.16 16.58-32.61L16.58-32.61L16.58-32.61Q12.93-29.06 12.93-23.36ZM70.66-33.66L70.66-33.66L70.66-33.66Q76.35-33.66 81.12-28.61L81.12-28.61L81.12-28.61Q85.89-23.55 85.89-16.86L85.89-16.86L85.89-16.86Q85.89-10.18 81.15-5.15L81.15-5.15L81.15-5.15Q76.42-0.13 70.98-0.13L70.98-0.13L70.98-0.13Q65.54-0.13 63.23-3.20L63.23-3.20L63.23-3.20Q62.72-0.06 57.73-0.06L57.73-0.06L57.73-0.06Q53.70-0.06 52.80-1.79L52.80-1.79L52.80-1.79Q52.35-2.75 52.26-3.49L52.26-3.49L52.26-3.49Q52.16-4.22 52.16-5.70L52.16-5.70L52.16-43.90L52.16-43.90Q52.16-45.38 52.26-46.11L52.26-46.11L52.26-46.11Q52.35-46.85 52.80-47.74L52.80-47.74L52.80-47.74Q53.70-49.47 57.79-49.47L57.79-49.47L57.79-49.47Q61.82-49.47 62.66-47.74L62.66-47.74L62.66-47.74Q63.17-46.78 63.26-46.05L63.26-46.05L63.26-46.05Q63.36-45.31 63.36-43.84L63.36-43.84L63.36-30.53L63.36-30.53Q65.92-33.66 70.66-33.66ZM65.06-12.99L65.06-12.99L65.06-12.99Q66.62-11.26 68.99-11.26L68.99-11.26L68.99-11.26Q71.36-11.26 73.02-12.99L73.02-12.99L73.02-12.99Q74.69-14.72 74.69-16.83L74.69-16.83L74.69-16.83Q74.69-18.94 73.15-20.70L73.15-20.70L73.15-20.70Q71.62-22.46 69.06-22.46L69.06-22.46L69.06-22.46Q66.50-22.46 64.99-20.67L64.99-20.67L64.99-20.67Q63.49-18.88 63.49-16.80L63.49-16.80L63.49-16.80Q63.49-14.72 65.06-12.99ZM90.30-3.01L90.30-3.01L90.30-3.01Q89.09-3.78 89.09-5.44L89.09-5.44L89.09-5.44Q89.09-7.10 91.52-10.50L91.52-10.50L91.52-10.50Q92.22-11.58 93.79-11.58L93.79-11.58L93.79-11.58Q95.36-11.58 98.05-10.02L98.05-10.02L98.05-10.02Q100.74-8.45 102.91-8.45L102.91-8.45L102.91-8.45Q106.82-8.45 106.82-9.98L106.82-9.98L106.82-9.98Q106.82-11.20 102.53-11.78L102.53-11.78L102.53-11.78Q98.50-12.35 94.53-14.78L94.53-14.78L94.53-14.78Q92.67-15.94 91.46-18.40L91.46-18.40L91.46-18.40Q90.24-20.86 90.24-24.26L90.24-24.26L90.24-24.26Q90.24-34.37 104.13-34.37L104.13-34.37L104.13-34.37Q108.67-34.37 113.47-32.19L113.47-32.19L113.47-32.19Q115.71-31.17 115.71-29.63L115.71-29.63L115.71-29.63Q115.71-28.10 114.30-25.86L114.30-25.86L114.30-25.86Q112.90-23.62 111.42-23.62L111.42-23.62L111.42-23.62Q110.66-23.62 108.58-24.58L108.58-24.58L108.58-24.58Q106.50-25.54 104.06-25.54L104.06-25.54L104.06-25.54Q100.29-25.54 100.29-24.13L100.29-24.13L100.29-24.13Q100.29-22.21 104.64-21.63L104.64-21.63L104.64-21.63Q108.86-21.18 112.83-19.20L112.83-19.20L112.83-19.20Q114.69-18.30 115.94-16.10L115.94-16.10L115.94-16.10Q117.18-13.89 117.18-10.56L117.18-10.56L117.18-10.56Q117.18-7.23 115.94-4.90L115.94-4.90L115.94-4.90Q114.69-2.56 112.45-1.41L112.45-1.41L112.45-1.41Q108.35 0.58 102.18 0.58L102.18 0.58L102.18 0.58Q96 0.58 90.30-3.01ZM139.90-22.40L139.90-22.40L135.74-22.66L135.74-13.82L135.74-13.82Q135.74-12.10 136.29-11.33L136.29-11.33L136.29-11.33Q136.83-10.56 138.34-10.56L138.34-10.56L138.34-10.56Q139.84-10.56 140.64-10.46L140.64-10.46L140.64-10.46Q141.44-10.37 142.34-9.86L142.34-9.86L142.34-9.86Q143.81-9.02 143.81-5.57L143.81-5.57L143.81-5.57Q143.81-1.54 142.02-0.64L142.02-0.64L142.02-0.64Q141.06-0.19 140.32-0.10L140.32-0.10L140.32-0.10Q139.58 0 138.18 0L138.18 0L138.18 0Q131.52 0 128.06-3.01L128.06-3.01L128.06-3.01Q124.61-6.02 124.61-13.18L124.61-13.18L124.61-22.66L124.61-22.66Q123.39-22.46 121.98-22.46L121.98-22.46L121.98-22.46Q120.58-22.46 119.65-23.55L119.65-23.55L119.65-23.55Q118.72-24.64 118.72-27.26L118.72-27.26L118.72-27.26Q118.72-29.89 119.04-31.07L119.04-31.07L119.04-31.07Q119.36-32.26 119.94-32.77L119.94-32.77L119.94-32.77Q120.96-33.60 122.50-33.60L122.50-33.60L124.61-33.34L124.61-39.94L124.61-39.94Q124.61-41.41 124.70-42.11L124.70-42.11L124.70-42.11Q124.80-42.82 125.31-43.65L125.31-43.65L125.31-43.65Q126.14-45.25 130.24-45.25L130.24-45.25L130.24-45.25Q134.59-45.25 135.42-42.88L135.42-42.88L135.42-42.88Q135.74-41.86 135.74-39.62L135.74-39.62L135.74-33.34L135.74-33.34Q138.56-33.60 140-33.60L140-33.60L140-33.60Q141.44-33.60 142.18-33.50L142.18-33.50L142.18-33.50Q142.91-33.41 143.87-32.90L143.87-32.90L143.87-32.90Q145.54-32.06 145.54-27.97L145.54-27.97L145.54-27.97Q145.54-23.94 143.81-23.04L143.81-23.04L143.81-23.04Q142.85-22.59 142.11-22.50L142.11-22.50L142.11-22.50Q141.38-22.40 139.90-22.40ZM175.23-22.27L168.90-16.90L177.41-9.86L177.41-9.86Q179.01-8.51 179.42-7.81L179.42-7.81L179.42-7.81Q179.84-7.10 179.84-6.46L179.84-6.46L179.84-6.46Q179.84-4.93 177.86-2.30L177.86-2.30L177.86-2.30Q175.68 0.38 174.02 0.38L174.02 0.38L174.02 0.38Q172.61 0.38 170.11-1.47L170.11-1.47L169.47-1.92L169.47-1.92Q168.00-3.14 164.93-6.18L164.93-6.18L164.93-6.18Q161.86-9.22 160.26-10.50L160.26-10.50L160.26-5.57L160.26-5.57Q160.26-4.10 160.16-3.36L160.16-3.36L160.16-3.36Q160.06-2.62 159.55-1.66L159.55-1.66L159.55-1.66Q158.72 0 154.62 0L154.62 0L154.62 0Q150.59 0 149.70-1.73L149.70-1.73L149.70-1.73Q149.25-2.69 149.15-3.42L149.15-3.42L149.15-3.42Q149.06-4.16 149.06-5.63L149.06-5.63L149.06-43.97L149.06-43.97Q149.06-45.44 149.15-46.18L149.15-46.18L149.15-46.18Q149.25-46.91 149.70-47.87L149.70-47.87L149.70-47.87Q150.59-49.60 154.69-49.60L154.69-49.60L154.69-49.60Q157.76-49.60 159.04-48.51L159.04-48.51L159.04-48.51Q160.13-47.62 160.19-45.70L160.19-45.70L160.19-45.70Q160.26-45.12 160.26-43.90L160.26-43.90L160.26-23.62L160.26-23.62Q161.41-24.58 163.74-26.88L163.74-26.88L163.74-26.88Q166.08-29.18 167.23-30.14L167.23-30.14L168.00-30.66L168.00-30.66Q170.24-32.38 171.84-32.38L171.84-32.38L171.84-32.38Q173.44-32.38 175.52-29.79L175.52-29.79L175.52-29.79Q177.60-27.20 177.60-25.73L177.60-25.73L177.60-25.73Q177.60-24.26 175.23-22.27L175.23-22.27ZM180.48-16.83L180.48-16.83Q180.48-24.51 185.86-29.50L185.86-29.50L185.86-29.50Q191.23-34.50 198.14-34.50L198.14-34.50L198.14-34.50Q205.06-34.50 210.37-29.54L210.37-29.54L210.37-29.54Q215.68-24.58 215.68-16.90L215.68-16.90L215.68-16.90Q215.68-11.58 212.93-7.46L212.93-7.46L212.93-7.46Q210.18-3.33 206.24-1.38L206.24-1.38L206.24-1.38Q202.30 0.58 198.08 0.58L198.08 0.58L198.08 0.58Q193.86 0.58 189.89-1.50L189.89-1.50L189.89-1.50Q185.92-3.58 183.20-7.65L183.20-7.65L183.20-7.65Q180.48-11.71 180.48-16.83L180.48-16.83ZM193.86-12.26L193.86-12.26L193.86-12.26Q195.90-10.69 198.02-10.69L198.02-10.69L198.02-10.69Q200.13-10.69 202.24-12.29L202.24-12.29L202.24-12.29Q204.35-13.89 204.35-17.02L204.35-17.02L204.35-17.02Q204.35-20.16 202.37-21.70L202.37-21.70L202.37-21.70Q200.38-23.23 198.08-23.23L198.08-23.23L198.08-23.23Q195.78-23.23 193.79-21.63L193.79-21.63L193.79-21.63Q191.81-20.03 191.81-16.93L191.81-16.93L191.81-16.93Q191.81-13.82 193.86-12.26ZM242.75-33.34L242.75-33.34L242.75-33.34Q243.97-32.96 244.77-32.03L244.77-32.03L244.77-32.03Q245.57-31.10 245.57-29.06L245.57-29.06L245.57-29.06Q245.57-27.01 244.35-24.58L244.35-24.58L244.35-24.58Q243.14-22.14 240.83-22.14L240.83-22.14L240.83-22.14Q239.68-22.14 238.62-22.66L238.62-22.66L238.62-22.66Q237.57-23.17 235.84-23.17L235.84-23.17L235.84-23.17Q234.11-23.17 232.61-21.95L232.61-21.95L232.61-21.95Q231.10-20.74 231.10-19.01L231.10-19.01L231.10-5.57L231.10-5.57Q231.10-4.10 231.01-3.36L231.01-3.36L231.01-3.36Q230.91-2.62 230.40-1.66L230.40-1.66L230.40-1.66Q229.44 0 225.41 0L225.41 0L225.41 0Q222.34 0 220.99-1.09L220.99-1.09L220.99-1.09Q219.97-1.98 219.84-3.84L219.84-3.84L219.84-3.84Q219.84-4.48 219.84-5.70L219.84-5.70L219.84-28.16L219.84-28.16Q219.84-29.63 219.94-30.37L219.94-30.37L219.94-30.37Q220.03-31.10 220.48-32L220.48-32L220.48-32Q221.38-33.73 225.47-33.73L225.47-33.73L225.47-33.73Q229.31-33.73 230.27-32.26L230.27-32.26L230.27-32.26Q230.98-31.23 230.98-30.14L230.98-30.14L230.98-30.14Q231.30-30.59 231.90-31.23L231.90-31.23L231.90-31.23Q232.51-31.87 234.50-32.96L234.50-32.96L234.50-32.96Q236.48-34.05 237.98-34.05L237.98-34.05L237.98-34.05Q239.49-34.05 240.51-33.89L240.51-33.89L240.51-33.89Q241.54-33.73 242.75-33.34ZM267.58-33.66L267.58-33.66L267.58-33.66Q273.28-33.66 278.05-28.61L278.05-28.61L278.05-28.61Q282.82-23.55 282.82-16.86L282.82-16.86L282.82-16.86Q282.82-10.18 278.08-5.15L278.08-5.15L278.08-5.15Q273.34-0.13 267.90-0.13L267.90-0.13L267.90-0.13Q262.46-0.13 260.16-3.20L260.16-3.20L260.16-3.20Q259.65-0.06 254.66-0.06L254.66-0.06L254.66-0.06Q250.62-0.06 249.73-1.79L249.73-1.79L249.73-1.79Q249.28-2.75 249.18-3.49L249.18-3.49L249.18-3.49Q249.09-4.22 249.09-5.70L249.09-5.70L249.09-43.90L249.09-43.90Q249.09-45.38 249.18-46.11L249.18-46.11L249.18-46.11Q249.28-46.85 249.73-47.74L249.73-47.74L249.73-47.74Q250.62-49.47 254.72-49.47L254.72-49.47L254.72-49.47Q258.75-49.47 259.58-47.74L259.58-47.74L259.58-47.74Q260.10-46.78 260.19-46.05L260.19-46.05L260.19-46.05Q260.29-45.31 260.29-43.84L260.29-43.84L260.29-30.53L260.29-30.53Q262.85-33.66 267.58-33.66ZM261.98-12.99L261.98-12.99L261.98-12.99Q263.55-11.26 265.92-11.26L265.92-11.26L265.92-11.26Q268.29-11.26 269.95-12.99L269.95-12.99L269.95-12.99Q271.62-14.72 271.62-16.83L271.62-16.83L271.62-16.83Q271.62-18.94 270.08-20.70L270.08-20.70L270.08-20.70Q268.54-22.46 265.98-22.46L265.98-22.46L265.98-22.46Q263.42-22.46 261.92-20.67L261.92-20.67L261.92-20.67Q260.42-18.88 260.42-16.80L260.42-16.80L260.42-16.80Q260.42-14.72 261.98-12.99Z" fill="#e76a24"></path></g></g><style>text {
  font-size: 64px;
  font-family: Arial Black;
  dominant-baseline: central;
  text-anchor: middle;
}</style></svg>